<?xml version="1.0" encoding="utf-8"?>
<!-- Generator: Adobe Illustrator 16.0.0, SVG Export Plug-In . SVG Version: 6.00 Build 0)  -->
<!DOCTYPE svg PUBLIC "-//W3C//DTD SVG 1.1//EN" "http://www.w3.org/Graphics/SVG/1.1/DTD/svg11.dtd">
<svg version="1.1" id="Layer_1" xmlns="http://www.w3.org/2000/svg" xmlns:xlink="http://www.w3.org/1999/xlink" x="0px" y="0px"
	 width="30px" height="41px" viewBox="0 0 30 41" enable-background="new 0 0 30 41" xml:space="preserve">
<g>
	<path fill="#FFFFFF" d="M15.393,3.533c-0.02-0.11-0.04-0.221-0.058-0.332c-0.163-0.989-0.514-1.856-1.32-2.535
		c-0.744-0.626-1.771,0.04-1.861,0.758c-0.09,0.72-0.129,1.459-0.073,2.181c0.083,1.061,0.322,2.11,0.4,3.17
		c0.072,0.966,0.026,1.94,0.016,2.912c-0.007,0.636-0.125,1.281-0.047,1.904c0.143,1.153,0.332,2.299,0.275,3.465
		c-0.022,0.464-0.087,0.927-0.133,1.39c-0.046,0.004-0.092,0.009-0.139,0.014c-0.054-0.263-0.119-0.523-0.157-0.789
		c-0.094-0.657-0.148-1.321-0.268-1.973c-0.185-1.006-0.455-1.999-0.609-3.009c-0.147-0.966-0.199-1.948-0.281-2.923
		c-0.071-0.845-0.093-1.695-0.199-2.535c-0.086-0.685-0.317-1.33-0.82-1.849c-0.424-0.433-1.108-0.494-1.53-0.054
		C8.375,3.55,8.192,3.848,8.11,4.145C7.841,5.106,7.958,6.098,8.005,7.073C8.066,8.32,8.248,9.56,8.332,10.807
		c0.041,0.594-0.01,1.195-0.043,1.791c-0.057,1.047,0.26,2.028,0.503,3.024c0.157,0.643,0.327,1.293,0.382,1.949
		c0.068,0.808-0.396,1.431-0.967,2.066c-0.345-0.27-0.714-0.517-1.033-0.819c-0.431-0.407-0.862-0.826-1.221-1.295
		c-0.295-0.387-0.502-0.846-0.718-1.288c-0.637-1.305-1.261-2.617-1.888-3.927c-0.426-0.892-1.068-1.577-1.939-2.044
		c-0.272-0.147-0.611-0.091-0.776,0.119c-0.254,0.322-0.324,0.688-0.244,1.084c0.067,0.334,0.137,0.669,0.219,1
		c0.188,0.758,0.271,1.549,0.671,2.241c0.211,0.365,0.453,0.713,0.667,1.076c0.346,0.586,0.528,1.236,0.761,1.87
		c0.193,0.526,0.573,0.984,0.88,1.466c0.549,0.863,1.125,1.71,1.652,2.585c0.31,0.514,0.571,1.059,0.812,1.607
		c0.358,0.814,0.758,1.625,0.996,2.477c0.394,1.404,0.677,2.843,0.998,4.27c0.33,1.465,0.913,2.858,1.145,4.356
		c0.168,1.085,0.438,2.147,0.38,3.263c-0.049,0.971,0.145,1.918,0.389,2.854c3.547,0,7.075,0,10.621,0
		c-0.022-0.148-0.06-0.276-0.062-0.405c-0.024-1.061-0.024-2.12-0.072-3.178c-0.029-0.641,0.102-1.238,0.318-1.827
		c0.188-0.513,0.405-0.996,0.934-1.279c0.262-0.139,0.517-0.337,0.695-0.569c0.416-0.539,0.791-1.111,1.172-1.678
		c0.75-1.119,1.451-2.275,2.258-3.354c0.562-0.755,1.045-1.539,1.312-2.427c0.435-1.442,0.937-2.852,1.587-4.213
		c0.215-0.453,0.322-0.97,0.404-1.469c0.111-0.682,0.145-1.376,0.225-2.063c0.082-0.709,0.164-1.418,0.272-2.123
		c0.063-0.422-0.011-0.813-0.313-1.089c-0.303-0.277-0.717-0.295-1.082-0.119c-0.304,0.146-0.593,0.345-0.843,0.571
		c-1.396,1.262-2.009,2.877-2.085,4.726c-0.006,0.136,0.004,0.284-0.046,0.404c-0.165,0.396-0.36,0.779-0.532,1.173
		c-0.335,0.764-1.017,1.179-1.628,1.682c-0.192-0.16-0.419-0.27-0.524-0.447c-0.457-0.781-0.791-1.617-1.018-2.494
		c-0.219-0.851-0.424-1.707-0.668-2.55c-0.35-1.203-0.553-2.426-0.615-3.678c-0.039-0.776-0.082-1.556-0.195-2.323
		c-0.154-1.042-0.338-2.079-0.67-3.087c-0.159-0.489-0.219-1.018-0.276-1.534c-0.051-0.437,0.013-0.888-0.062-1.319
		c-0.071-0.42-0.258-0.82-0.381-1.232c-0.24-0.804-0.677-1.485-1.316-2.018c-0.188-0.155-0.469-0.306-0.691-0.287
		C15.918,2.389,15.552,2.782,15.393,3.533z"/>
	<path fill="#FFFFFF" d="M15.393,3.533c0.16-0.75,0.525-1.144,1.282-1.209c0.224-0.019,0.505,0.131,0.691,0.287
		c0.641,0.533,1.077,1.214,1.315,2.018c0.123,0.413,0.311,0.812,0.383,1.232c0.071,0.431,0.01,0.883,0.061,1.319
		c0.059,0.516,0.117,1.044,0.277,1.534c0.332,1.009,0.515,2.046,0.668,3.087c0.115,0.767,0.158,1.547,0.197,2.323
		c0.062,1.251,0.266,2.475,0.614,3.678c0.244,0.844,0.449,1.7,0.668,2.55c0.228,0.876,0.562,1.712,1.019,2.494
		c0.104,0.18,0.33,0.287,0.523,0.447c0.611-0.503,1.293-0.918,1.629-1.682c0.17-0.395,0.366-0.777,0.531-1.173
		c0.05-0.121,0.04-0.268,0.046-0.404c0.076-1.849,0.688-3.464,2.085-4.726c0.25-0.226,0.539-0.425,0.844-0.571
		c0.364-0.176,0.778-0.158,1.082,0.119c0.303,0.276,0.377,0.667,0.312,1.089c-0.107,0.705-0.189,1.414-0.271,2.123
		c-0.08,0.688-0.113,1.382-0.226,2.063c-0.082,0.5-0.188,1.016-0.405,1.469c-0.65,1.361-1.15,2.771-1.586,4.213
		c-0.267,0.888-0.75,1.672-1.312,2.427c-0.807,1.077-1.506,2.233-2.258,3.354c-0.381,0.566-0.756,1.14-1.172,1.679
		c-0.179,0.232-0.434,0.432-0.695,0.569c-0.526,0.283-0.743,0.767-0.934,1.279c-0.217,0.589-0.348,1.188-0.318,1.827
		c0.049,1.058,0.049,2.117,0.072,3.178c0.004,0.129,0.039,0.257,0.062,0.404c-3.546,0-7.074,0-10.621,0
		c-0.244-0.936-0.438-1.883-0.389-2.854c0.057-1.115-0.212-2.178-0.38-3.263c-0.232-1.498-0.814-2.894-1.145-4.356
		c-0.321-1.427-0.604-2.863-0.998-4.27c-0.238-0.852-0.638-1.661-0.996-2.477c-0.241-0.549-0.502-1.095-0.812-1.607
		c-0.528-0.875-1.103-1.722-1.652-2.585c-0.307-0.482-0.688-0.94-0.88-1.466c-0.232-0.634-0.415-1.284-0.761-1.87
		c-0.214-0.363-0.456-0.711-0.667-1.076c-0.4-0.692-0.483-1.483-0.671-2.241c-0.082-0.332-0.151-0.666-0.219-1
		c-0.08-0.396-0.01-0.762,0.244-1.084c0.166-0.21,0.504-0.266,0.776-0.119c0.871,0.468,1.513,1.153,1.939,2.044
		c0.627,1.31,1.25,2.622,1.888,3.927c0.215,0.442,0.422,0.901,0.718,1.288c0.358,0.469,0.79,0.889,1.221,1.295
		c0.318,0.302,0.688,0.549,1.033,0.819C8.777,19,9.241,18.377,9.173,17.569c-0.055-0.656-0.225-1.306-0.382-1.949
		c-0.243-0.997-0.56-1.977-0.503-3.024C8.321,12,8.371,11.399,8.331,10.805C8.248,9.56,8.066,8.32,8.005,7.073
		C7.958,6.098,7.841,5.106,8.11,4.145C8.192,3.848,8.375,3.55,8.589,3.328c0.422-0.439,1.106-0.379,1.528,0.056
		c0.503,0.519,0.734,1.164,0.82,1.849c0.106,0.84,0.128,1.689,0.199,2.535c0.082,0.976,0.134,1.957,0.281,2.923
		c0.154,1.01,0.424,2.003,0.609,3.009c0.12,0.652,0.174,1.315,0.268,1.973c0.038,0.265,0.103,0.526,0.157,0.789
		c0.046-0.004,0.092-0.009,0.139-0.014c0.046-0.463,0.111-0.926,0.133-1.39c0.057-1.167-0.132-2.312-0.275-3.465
		c-0.077-0.623,0.04-1.269,0.047-1.904c0.01-0.971,0.056-1.946-0.016-2.912c-0.078-1.061-0.317-2.11-0.4-3.17
		c-0.056-0.721-0.017-1.461,0.073-2.181c0.09-0.718,1.117-1.384,1.861-0.758c0.806,0.679,1.157,1.546,1.32,2.535
		C15.353,3.312,15.373,3.422,15.393,3.533z"/>
</g>
</svg>
